PathFileType	4	(X/Y/Z)	TVC_60_Cal_03_0_static_RCNL2025.trc
DataRate	CameraRate	NumFrames	NumMarkers	Units	OrigDataRate	OrigDataStartFrame	OrigNumFrames
100	100	11	27	mm	100	89	354
Frame#	Time	R_Shoulder			L_Shoulder			C7			J_Notch			R_Elbow			L_Elbow			R_Wrist			L_Wrist			R_Asis			L_Asis			R_Psis			L_Psis			Sacral			Thoracic			Sternum			R_Thigh_Lateral			R_Knee_Lateral			R_Shank_Lateral			R_Ankle_Lateral			R_Heel			R_Toe			L_Thigh_Lateral			L_Knee_Lateral			L_Shank_Lateral			L_Ankle_Lateral			L_Heel			L_Toe		
		X1	Y1	Z1	X2	Y2	Z2	X3	Y3	Z3	X4	Y4	Z4	X5	Y5	Z5	X6	Y6	Z6	X7	Y7	Z7	X8	Y8	Z8	X9	Y9	Z9	X10	Y10	Z10	X11	Y11	Z11	X12	Y12	Z12	X13	Y13	Z13	X14	Y14	Z14	X15	Y15	Z15	X16	Y16	Z16	X17	Y17	Z17	X18	Y18	Z18	X19	Y19	Z19	X20	Y20	Z20	X21	Y21	Z21	X22	Y22	Z22	X23	Y23	Z23	X24	Y24	Z24	X25	Y25	Z25	X26	Y26	Z26	X27	Y27	Z27
89	0.88000000	-281.670105	1352.792480	-65.190887	-246.402359	1361.131348	-405.998779	-295.029755	1420.625977	-251.839615	-199.036865	1285.977173	-230.086166	-347.498352	1014.946289	-4.083531	-289.799835	1014.165161	-459.863586	-276.255844	794.349152	51.771984	-191.199501	800.947418	-481.352783	-214.164444	924.363403	-81.071350	-202.012695	915.512207	-365.006439	-389.417297	923.827454	-169.812500	-383.821136	923.140198	-279.594025	-386.619217	923.483826	-224.703262	-361.299042	1203.781372	-244.623001	-165.536926	1092.998657	-217.292038	-251.211151	608.094238	-12.427558	-256.872192	449.307648	-88.220886	-287.661652	233.918076	-46.586201	-330.634338	65.211090	-115.350281	-371.567993	57.938732	-164.553787	-200.053696	43.092682	-119.359978	NaN	NaN	NaN	-257.693481	442.237152	-332.709106	-301.509766	254.031784	-360.712280	-333.676392	59.784313	-278.762665	-377.059082	61.047592	-235.764603	-205.607605	43.415508	-271.514069
90	0.89000000	-281.707367	1352.657227	-65.506973	-246.467514	1361.121826	-406.061707	-295.262695	1420.607178	-252.016052	-199.148056	1285.995483	-230.024673	-347.642365	1015.004089	-4.189599	-289.707825	1014.098755	-459.876526	-276.176788	794.414459	51.827406	-190.949326	800.917267	-481.204208	-214.422058	924.354431	-81.170120	-201.926590	915.536377	-365.082336	-389.398590	923.873779	-169.867065	-383.831940	923.029602	-279.693146	-386.615265	923.451691	-224.780106	-361.426605	1203.746338	-244.751038	-165.571136	1093.099854	-217.242920	-251.201370	608.149170	-12.505615	-256.481537	449.273041	-88.050682	-287.611176	234.053436	-46.415733	-330.569946	65.221001	-115.464584	-371.739471	58.113178	-164.592438	-200.144318	43.147301	-119.380600	NaN	NaN	NaN	-257.731018	442.311829	-332.736176	-301.480774	254.044418	-360.776581	-333.696930	59.797619	-278.754059	-377.111877	61.113335	-235.683929	-205.601898	43.449383	-271.433441
91	0.90000000	-282.142090	1352.811768	-65.620285	-246.569855	1361.113647	-406.189880	-295.459137	1420.578735	-252.185455	-199.411163	1285.925171	-230.200287	-347.934631	1014.993103	-4.348765	-289.516602	1013.985168	-459.933411	-275.498596	794.632172	52.001635	-190.677109	800.833801	-481.138168	-214.358459	924.509399	-81.193336	-201.403976	915.466309	-365.792786	-389.490570	923.949951	-170.047043	-383.839752	923.072937	-279.847260	-386.665161	923.511444	-224.947151	-361.488434	1203.753784	-244.862823	-165.508591	1093.222900	-217.257553	-251.285080	608.154541	-12.478547	-256.790436	449.343170	-88.437485	-287.706116	234.098007	-46.497593	-330.735809	65.308716	-115.456749	-371.655029	58.031864	-164.572250	-200.050690	43.086597	-119.333107	NaN	NaN	NaN	-257.629120	442.300385	-332.693695	-301.387573	254.009705	-360.772430	-333.698303	59.855839	-278.765503	-377.160278	61.144924	-235.707291	-205.656769	43.489185	-271.494171
92	0.91000000	-282.383057	1352.809082	-65.701836	-246.539413	1361.054565	-406.317566	-295.630188	1420.523438	-252.401169	-199.516953	1285.978149	-230.264862	-348.171539	1014.951660	-4.461403	-289.348206	1013.983948	-459.938629	-276.289917	794.532684	51.815584	-190.370186	800.850647	-481.028824	-214.482056	924.425476	-81.120186	-201.440048	915.454529	-365.770416	-389.550446	923.855408	-170.152725	-383.812103	923.087830	-280.029480	-386.681274	923.471619	-225.091103	-361.581787	1203.742432	-244.939224	-165.570450	1093.057251	-217.235229	-251.272003	608.174194	-12.522852	-256.718262	449.324066	-88.340622	-287.474823	234.087677	-46.458092	-330.678314	65.308861	-115.324280	-371.675720	58.044983	-164.588440	-200.019867	43.118664	-119.381050	NaN	NaN	NaN	-257.511444	442.256958	-332.755432	-301.310760	253.990555	-360.770294	-333.706177	59.810612	-278.762543	-377.065643	61.135090	-235.734589	-205.611496	43.468941	-271.478119
93	0.92000000	-282.920380	1352.936523	-65.745796	-246.574844	1360.974976	-406.464386	-295.710449	1420.463501	-252.536057	-199.619781	1285.986938	-230.388718	-348.394226	1014.965088	-4.585527	-289.205597	1013.959473	-460.004181	-276.784698	794.357941	51.613739	-190.090118	800.744202	-480.962219	-214.481735	924.424500	-81.120277	-201.256424	915.486206	-365.850372	-389.586884	923.875122	-170.382126	-383.736023	922.984314	-280.194702	-386.661453	923.429718	-225.288414	-361.605316	1203.709473	-245.096863	-165.650131	1093.147095	-217.295883	-251.227692	607.958008	-12.711448	-256.567291	449.426056	-88.460312	-287.408813	234.127609	-46.659378	-330.698761	65.325058	-115.422020	-371.664185	58.043697	-164.562943	-199.940918	43.146168	-119.395607	NaN	NaN	NaN	-257.338745	442.199890	-332.844574	-301.200684	254.062363	-360.751831	-333.694305	59.855045	-278.748657	-377.076385	61.203537	-235.716614	-205.630157	43.458908	-271.462402
94	0.93000000	-282.919922	1352.876221	-65.919312	-246.577148	1360.963989	-406.561005	-296.136993	1420.842041	-252.556870	-199.744324	1285.958862	-230.425507	-348.522247	1014.935913	-4.749641	-289.057343	1013.853088	-460.005676	-276.908920	794.453308	51.612949	-190.000237	800.720367	-480.999298	-214.419708	924.584351	-81.143036	-201.194595	915.572815	-365.850098	-389.563171	923.817200	-170.476196	-383.785065	923.002563	-280.317291	-386.674118	923.409882	-225.396744	-361.730957	1203.680664	-245.224579	-165.741318	1093.200684	-217.277496	-251.212814	607.937073	-12.691264	-256.552032	449.378632	-88.495834	-287.251160	234.191406	-46.607800	-330.681915	65.347359	-115.427994	-371.637970	58.078434	-164.483383	-199.950317	43.164204	-119.421356	NaN	NaN	NaN	-257.115997	442.207825	-332.806641	-301.157043	253.999252	-360.807739	-333.688354	59.828953	-278.772797	-376.996613	61.202332	-235.707428	-205.548767	43.458492	-271.434662
95	0.94000000	-283.338348	1352.885864	-66.010674	-246.650909	1360.902710	-406.652374	-296.150208	1420.522095	-252.765091	-199.850220	1285.949951	-230.547394	-348.798340	1014.929993	-4.881693	-288.955658	1013.790100	-459.982941	-273.780632	795.295074	52.788309	-189.956055	800.679657	-480.935898	-214.508820	924.583496	-81.039314	-201.078674	915.480347	-365.977631	-389.646240	923.777649	-170.659378	-383.710052	922.876770	-280.495544	-386.678146	923.327209	-225.577461	-361.789215	1203.550171	-245.407898	-165.748474	1093.125732	-217.323410	-251.124039	607.891052	-12.694966	-256.441620	449.252045	-88.685059	-287.354095	234.016800	-46.746006	-330.738342	65.393539	-115.341339	-371.708374	58.064655	-164.615570	-199.976440	43.149193	-119.357574	-263.987457	631.870911	-417.236084	-257.085815	442.112701	-332.798706	-301.088348	254.029892	-360.764923	-333.640686	59.814472	-278.740997	-377.124359	61.111137	-235.722610	-205.571167	43.440422	-271.461426
96	0.95000000	-283.697693	1352.876099	-66.159950	-246.586639	1360.875610	-406.676819	-296.174377	1420.440063	-253.022659	-199.972717	1285.943115	-230.585510	-348.644836	1014.776245	-5.187525	-288.851990	1013.711853	-460.063141	-273.722618	795.279572	52.586195	-189.761513	800.574371	-480.935211	-214.545120	924.506165	-81.069359	-200.975693	915.431274	-366.100800	-389.755615	923.688293	-170.832825	-383.749939	922.845520	-280.644653	-386.752777	923.266907	-225.738739	-361.945496	1203.516113	-245.516983	-165.916428	1093.224121	-217.298462	-251.039658	607.937500	-12.766760	-256.348785	449.213928	-88.725098	-287.190735	234.172882	-46.677395	-330.464294	65.245422	-115.495972	-371.715302	58.080376	-164.600250	-199.924561	43.129536	-119.439865	-263.824615	631.778992	-417.208435	-256.884216	442.041107	-332.813690	-301.030090	253.948563	-360.802582	-333.549744	59.752193	-278.828430	-377.066742	61.221169	-235.726944	-205.701630	43.375122	-271.503326
97	0.96000000	-284.171204	1352.966675	-66.135033	-246.675018	1360.881714	-406.771454	-296.366516	1420.428223	-253.176727	-200.209488	1285.948608	-230.582596	-348.844604	1014.794739	-5.258801	-288.729370	1013.667358	-460.048737	-273.841034	795.216492	52.644106	-189.464272	800.537598	-480.796143	-214.572067	924.664795	-80.988426	-200.900543	915.512390	-366.091095	-389.819336	923.657898	-170.953934	-383.783630	922.867126	-280.703308	-386.801483	923.262512	-225.828621	-362.029938	1203.441162	-245.711594	-166.039917	1093.115356	-217.287872	-251.114746	608.000061	-12.851212	-256.327026	449.150543	-88.767944	-287.150146	234.115601	-46.676128	-330.435516	65.299187	-115.434509	-371.560791	58.032505	-164.586868	-199.952911	43.140659	-119.412483	-263.791504	631.845459	-417.265900	-256.972076	442.038513	-332.955292	-300.939941	253.882111	-360.795654	-333.585022	59.784203	-278.752777	-377.093445	61.215027	-235.759659	-205.587036	43.364723	-271.421967
98	0.97000000	-284.573975	1352.959351	-66.207726	-246.653168	1360.835205	-406.827698	-296.584869	1420.458130	-253.281113	-200.331207	1285.891479	-230.623093	-349.436401	1014.848999	-5.319249	-288.665527	1013.608704	-460.091827	-273.963127	795.257996	52.601461	-189.514641	800.599823	-480.972565	-214.545898	924.745972	-81.041351	-200.907257	915.465515	-366.238007	-389.884705	923.627991	-171.160934	-383.795288	922.786194	-280.884399	-386.839996	923.207092	-226.022667	-362.127686	1203.432251	-245.894531	-166.080963	1093.247437	-217.290726	-251.114182	608.112915	-12.852171	-256.421387	449.250031	-88.854012	-287.205597	234.170425	-46.556786	-330.667419	65.268890	-115.446243	-371.662415	58.072124	-164.647705	-199.953186	43.110756	-119.416801	-263.619843	631.753662	-417.215057	-256.821228	441.978607	-332.736938	-300.884308	253.943695	-360.733093	-333.595978	59.763988	-278.812378	-377.064117	61.232834	-235.733292	-205.645477	43.406166	-271.468109
99	0.98000000	-285.062256	1352.926392	-66.301392	-246.715866	1360.708984	-407.009125	-296.654510	1420.362427	-253.427277	-200.489029	1285.999634	-230.695877	-349.320282	1014.607605	-5.550008	-288.546722	1013.549683	-460.208862	-274.184433	795.240509	52.569366	-189.324562	800.407745	-480.692429	-214.546616	924.748230	-81.041145	-200.815552	915.450623	-366.336029	-389.940491	923.498596	-171.284500	-383.833038	922.713440	-281.051514	-386.886765	923.106018	-226.168007	-362.241211	1203.407104	-246.042221	-166.184540	1093.178223	-217.326828	-251.199539	608.070679	-12.934213	-256.326324	449.048645	-88.868729	-287.237762	234.021423	-46.652733	-330.695038	65.334938	-115.530159	-371.709808	58.031963	-164.738159	-199.900375	43.062588	-119.475433	-263.472321	631.684204	-417.317139	-256.677856	441.914337	-332.812714	-300.893188	253.860550	-360.783905	-333.623260	59.796314	-278.786346	-377.160156	61.153614	-235.666245	-205.620224	43.349037	-271.385681
